<svg xmlns="http://www.w3.org/2000/svg" xmlns:xlink="http://www.w3.org/1999/xlink" viewBox="0 0 64 64"><defs><style>.cls-1{fill:url(#Безымянный_градиент_8);}.cls-2{fill:#01014f;}</style><linearGradient id="Безымянный_градиент_8" y1="32" x2="64" y2="32" gradientUnits="userSpaceOnUse"><stop offset="0" stop-color="#e3e1de"/><stop offset="0" stop-color="#dbd8d5"/><stop offset="0.06" stop-color="#ccc9c8"/><stop offset="0.18" stop-color="#a5a3a6"/><stop offset="0.26" stop-color="#87858b"/><stop offset="0.53" stop-color="#f2f2f3"/><stop offset="0.59" stop-color="#e4e3e5"/><stop offset="0.71" stop-color="#bebcbf"/><stop offset="0.87" stop-color="#827e83"/><stop offset="0.88" stop-color="#7e7a7f"/><stop offset="1" stop-color="#cfd0d2"/><stop offset="1" stop-color="#a5a7a9"/></linearGradient></defs><title>64px</title><g id="Слой_2" data-name="Слой 2"><g id="Слой_1-2" data-name="Слой 1"><circle class="cls-1" cx="32" cy="32" r="32"/><path class="cls-2" d="M27,35.82c.27-.62.51-1.26.74-1.9-8.35-2-14.39-9.36-15.32-18.33A19.54,19.54,0,0,0,27,35.82Z"/><path class="cls-2" d="M25.08,39.29a17.73,17.73,0,0,0,1-1.68,20.51,20.51,0,0,1-14.41-14C12.63,31.38,18.33,36.95,25.08,39.29Z"/><path class="cls-2" d="M11.66,28.84A19.53,19.53,0,0,0,22.23,42.28l.45-.36a10.87,10.87,0,0,0,.93-.85A20.57,20.57,0,0,1,11.66,28.84Z"/><path class="cls-2" d="M37.67,37.69a17.18,17.18,0,0,0,1,1.7c6.87-2.28,12.74-7.89,13.69-15.74A20.54,20.54,0,0,1,37.67,37.69Z"/><path class="cls-2" d="M51.7,15.59c-.93,9.09-7.12,16.52-15.62,18.4.22.65.47,1.29.74,1.92A19.55,19.55,0,0,0,51.7,15.59Z"/><path class="cls-2" d="M40.21,41.18a10.08,10.08,0,0,0,.82.73l.61.48A19.58,19.58,0,0,0,52.43,28.84,20.6,20.6,0,0,1,40.21,41.18Z"/><path class="cls-2" d="M31.88,22.15c-.22,0-.64,15.22-8.08,21.18a10.41,10.41,0,0,0,5,3.71v.55H27.45l.56,2h7.66l.56-2H34.8v-.5a10.38,10.38,0,0,0,5.12-3.76C32.62,37.6,32.1,22.15,31.88,22.15Z"/></g></g></svg>