<svg xmlns="http://www.w3.org/2000/svg" viewBox="0 0 33.57 33.57"><defs><style>.cls-1{fill:#09295b;}</style></defs><title>Ресурс 1</title><g id="Слой_2" data-name="Слой 2"><g id="Layer_1" data-name="Layer 1"><path class="cls-1" d="M16.79,0A16.79,16.79,0,1,0,33.57,16.79,16.86,16.86,0,0,0,16.79,0Zm7.86,18.34h-6.3v6.3a1.53,1.53,0,0,1-1.56,1.56,1.56,1.56,0,0,1-1.56-1.56v-6.3H8.93a1.56,1.56,0,1,1,0-3.11h6.3V8.93a1.53,1.53,0,0,1,1.56-1.56,1.56,1.56,0,0,1,1.56,1.56v6.3h6.3a1.53,1.53,0,0,1,1.56,1.56A1.56,1.56,0,0,1,24.65,18.34Z"/></g></g></svg>