<svg xmlns="http://www.w3.org/2000/svg" xmlns:xlink="http://www.w3.org/1999/xlink" viewBox="0 0 45 45"><defs><style>.cls-1{opacity:0.5;}.cls-2{fill:url(#Безымянный_градиент_38);}.cls-3{fill:#fff;}.cls-4{fill:#09295b;}</style><radialGradient id="Безымянный_градиент_38" cx="22.5" cy="22.5" r="22.5" gradientUnits="userSpaceOnUse"><stop offset="0" stop-color="#fff" stop-opacity="0.5"/><stop offset="0.01" stop-color="#d3d3d3" stop-opacity="0.45"/><stop offset="0.05" stop-color="#787878" stop-opacity="0.34"/><stop offset="0.08" stop-color="#373737" stop-opacity="0.26"/><stop offset="0.1" stop-color="#0e0e0e" stop-opacity="0.22"/><stop offset="0.12" stop-opacity="0.2"/><stop offset="0.46" stop-opacity="0.3"/><stop offset="1" stop-opacity="0"/></radialGradient></defs><title>addd</title><g id="Слой_2" data-name="Слой 2"><g id="Слой_1-2" data-name="Слой 1"><g class="cls-1"><circle class="cls-2" cx="22.5" cy="22.5" r="22.5"/></g><circle class="cls-3" cx="22.5" cy="22.5" r="20.07"/><path class="cls-4" d="M27.55,17.19a.74.74,0,0,0-.75.74V28.81a4,4,0,0,1-4,4,4,4,0,0,1-4-4V14.45a2.72,2.72,0,0,1,5.43,0V26.66A1.33,1.33,0,0,1,22.91,28a1.35,1.35,0,0,1-1.34-1.35V20.31a.74.74,0,1,0-1.47,0v6.35a2.73,2.73,0,0,0,.82,2,2.69,2.69,0,0,0,2,.82,2.76,2.76,0,0,0,2-.82,2.68,2.68,0,0,0,.82-2V14.45a4.17,4.17,0,0,0-7.14-3,4.06,4.06,0,0,0-1.23,3V28.81a5.44,5.44,0,0,0,5.44,5.44,5.41,5.41,0,0,0,5.48-5.44V17.93A.73.73,0,0,0,27.55,17.19Z"/></g></g></svg>