<svg xmlns="http://www.w3.org/2000/svg" viewBox="0 0 31.12 22.82"><defs><style>.cls-1{fill:#09295b;}</style></defs><title>cloud-storage-download</title><g id="Слой_2" data-name="Слой 2"><g id="Слой_1-2" data-name="Слой 1"><path class="cls-1" d="M29.77,12.73a6.14,6.14,0,0,0-3.46-2.2A4,4,0,0,0,27,8.3a4,4,0,0,0-1.22-2.93,4.13,4.13,0,0,0-5.62-.21A8.31,8.31,0,0,0,12.45,0,8,8,0,0,0,6.58,2.43,8,8,0,0,0,4.15,8.3q0,.21,0,.7A7.25,7.25,0,0,0,0,15.56a7,7,0,0,0,2.13,5.13,7,7,0,0,0,5.13,2.13H24.9a6.23,6.23,0,0,0,6.22-6.22A6,6,0,0,0,29.77,12.73Zm-9.18.62L14.9,19a.55.55,0,0,1-.75,0L8.45,13.34A.5.5,0,0,1,8.3,13a.53.53,0,0,1,.52-.52h3.63V6.74A.53.53,0,0,1,13,6.22h3.11a.52.52,0,0,1,.52.52v5.71h3.63a.5.5,0,0,1,.52.52A.61.61,0,0,1,20.59,13.36Z"/></g></g></svg>