<svg xmlns="http://www.w3.org/2000/svg" viewBox="0 0 29.4 33.6"><defs><style>.cls-1{fill:#fff;}</style></defs><title>exite white</title><g id="Слой_2" data-name="Слой 2"><g id="Слой_1-2" data-name="Слой 1"><path class="cls-1" d="M29.1,16.2l-5.6-4.9a.67.67,0,0,0-1.1.5v2.1H14.7a.68.68,0,0,0-.7.7v4.2a.68.68,0,0,0,.7.7h7.7v2.1a.68.68,0,0,0,.4.6c.1,0,.2.1.3.1s.3-.1.5-.2l5.6-4.9c.2-.1.2-.3.2-.5A.55.55,0,0,0,29.1,16.2Z"/><path class="cls-1" d="M20.3,20.9H14.7a2.05,2.05,0,0,1-2.1-2.1V14.6a2.05,2.05,0,0,1,2.1-2.1h5.6a.68.68,0,0,0,.7-.7V2.1A2.05,2.05,0,0,0,18.9,0H2.1A2.05,2.05,0,0,0,0,2.1V31.5a2.05,2.05,0,0,0,2.1,2.1H18.9A2.05,2.05,0,0,0,21,31.5V21.7A.77.77,0,0,0,20.3,20.9Z"/></g></g></svg>