<svg xmlns="http://www.w3.org/2000/svg" xmlns:xlink="http://www.w3.org/1999/xlink" viewBox="0 0 129.84 44.02"><defs><style>.cls-1{fill:url(#Безымянный_градиент_8);}.cls-2{fill:#01014f;}</style><linearGradient id="Безымянный_градиент_8" y1="22.01" x2="44.02" y2="22.01" gradientUnits="userSpaceOnUse"><stop offset="0" stop-color="#e3e1de"/><stop offset="0" stop-color="#dbd8d5"/><stop offset="0.06" stop-color="#ccc9c8"/><stop offset="0.18" stop-color="#a5a3a6"/><stop offset="0.26" stop-color="#87858b"/><stop offset="0.53" stop-color="#f2f2f3"/><stop offset="0.59" stop-color="#e4e3e5"/><stop offset="0.71" stop-color="#bebcbf"/><stop offset="0.87" stop-color="#827e83"/><stop offset="0.88" stop-color="#7e7a7f"/><stop offset="1" stop-color="#cfd0d2"/><stop offset="1" stop-color="#a5a7a9"/></linearGradient></defs><title>На белый фон</title><g id="Слой_2" data-name="Слой 2"><g id="Слой_1-2" data-name="Слой 1"><circle class="cls-1" cx="22.01" cy="22.01" r="22.01"/><path class="cls-2" d="M18.54,24.64c.19-.43.35-.87.51-1.31A14.2,14.2,0,0,1,8.49,10.69,13.48,13.48,0,0,0,18.54,24.64Z"/><path class="cls-2" d="M17.24,27a12.22,12.22,0,0,0,.71-1.16A14.14,14.14,0,0,1,8,16.25C8.66,21.58,12.59,25.42,17.24,27Z"/><path class="cls-2" d="M8,19.83a13.46,13.46,0,0,0,7.29,9.27l.31-.25a7.5,7.5,0,0,0,.64-.58A14.18,14.18,0,0,1,8,19.83Z"/><path class="cls-2" d="M25.92,25.93a11.85,11.85,0,0,0,.71,1.17c4.74-1.57,8.78-5.44,9.44-10.86A14.16,14.16,0,0,1,25.92,25.93Z"/><path class="cls-2" d="M35.6,10.69A14.18,14.18,0,0,1,24.82,23.38c.15.45.32.89.51,1.32A13.48,13.48,0,0,0,35.6,10.69Z"/><path class="cls-2" d="M27.67,28.34a7,7,0,0,0,.57.5l.42.33a13.5,13.5,0,0,0,7.43-9.34A14.2,14.2,0,0,1,27.67,28.34Z"/><path class="cls-2" d="M21.93,15.22c-.15,0-.44,10.49-5.57,14.6a7.18,7.18,0,0,0,3.44,2.56v.38h-.93l.39,1.37h5.28l.39-1.37h-1v-.35a7.16,7.16,0,0,0,3.53-2.59C22.44,25.87,22.08,15.22,21.93,15.22Z"/><path class="cls-2" d="M58.54,30.66V29.23c-4.34-.4-6.89-2.3-6.89-5.58s2.55-5.18,6.89-5.58V16.62h3.64v1.45c4.34.4,6.89,2.32,6.89,5.58s-2.55,5.18-6.89,5.58v1.43Zm0-4.65V21.29c-2.13.27-3.2,1.07-3.2,2.36S56.41,25.73,58.54,26Zm3.64-4.72V26c2.13-.27,3.2-1.05,3.2-2.36S64.31,21.56,62.18,21.29Z"/><path class="cls-2" d="M70.81,30.66V20.49h3.24v5.33l3.62-5.33h3.26V30.66H77.7v-5.6l-3.79,5.6Z"/><path class="cls-2" d="M83.3,30.66V20.49h3.24V24h3.64v-3.5h3.24V30.66H90.19V26.81H86.54v3.85Z"/><path class="cls-2" d="M95.87,30.66v-14H99.5v8.28l5.69-8.28h3.75v14h-3.64V22l-5.92,8.68Z"/><path class="cls-2" d="M110.7,25.57a5.24,5.24,0,0,1,5.56-5.33,4.88,4.88,0,0,1,4.17,1.87l-2.11,2a2.22,2.22,0,0,0-1.92-1A2.3,2.3,0,0,0,114,25.57a2.32,2.32,0,0,0,2.38,2.48,2.29,2.29,0,0,0,1.92-1l2.11,2a4.93,4.93,0,0,1-4.17,1.87A5.24,5.24,0,0,1,110.7,25.57Z"/><path class="cls-2" d="M123.84,30.66V23.31h-2.78V20.49h8.78v2.82h-2.76v7.35Z"/></g></g></svg>