<svg xmlns="http://www.w3.org/2000/svg" xmlns:xlink="http://www.w3.org/1999/xlink" viewBox="0 0 45 45"><defs><style>.cls-1{opacity:0.5;}.cls-2{fill:url(#Безымянный_градиент_38);}.cls-3{fill:#fff;}.cls-4{fill:#09295b;}</style><radialGradient id="Безымянный_градиент_38" cx="22.5" cy="22.5" r="22.5" gradientUnits="userSpaceOnUse"><stop offset="0" stop-color="#fff" stop-opacity="0.5"/><stop offset="0.01" stop-color="#d3d3d3" stop-opacity="0.45"/><stop offset="0.05" stop-color="#787878" stop-opacity="0.34"/><stop offset="0.08" stop-color="#373737" stop-opacity="0.26"/><stop offset="0.1" stop-color="#0e0e0e" stop-opacity="0.22"/><stop offset="0.12" stop-opacity="0.2"/><stop offset="0.46" stop-opacity="0.3"/><stop offset="1" stop-opacity="0"/></radialGradient></defs><title>icon date</title><g id="Слой_2" data-name="Слой 2"><g id="Слой_1-2" data-name="Слой 1"><g class="cls-1"><circle class="cls-2" cx="22.5" cy="22.5" r="22.5"/></g><circle class="cls-3" cx="22.5" cy="22.5" r="20.07"/><rect class="cls-4" x="22.14" y="21.38" width="1.72" height="1.72"/><path class="cls-4" d="M31.42,13.22h-1V11.5H28.67v1.72H17.33V11.5H15.61v1.72h-1A2.58,2.58,0,0,0,12,15.8V30.92a2.58,2.58,0,0,0,2.58,2.58h8.84a7.58,7.58,0,0,1-1.53-1.72H14.58a.86.86,0,0,1-.86-.86V19.58H32.28v1.8h0A7.58,7.58,0,0,1,34,22.92V15.8A2.58,2.58,0,0,0,31.42,13.22Zm.86,4.64H13.72V15.8a.86.86,0,0,1,.86-.86h1v1.72h1.72V14.94H28.67v1.72h1.72V14.94h1a.86.86,0,0,1,.86.86Z"/><path class="cls-4" d="M28.2,21.9A5.8,5.8,0,1,0,34,27.7,5.81,5.81,0,0,0,28.2,21.9Zm0,9.88a4.08,4.08,0,1,1,4.08-4.08A4.09,4.09,0,0,1,28.2,31.78Z"/><polygon class="cls-4" points="29.02 24.82 27.3 24.82 27.3 28.56 30.48 28.56 30.48 26.84 29.02 26.84 29.02 24.82"/><rect class="cls-4" x="18.7" y="24.82" width="1.72" height="1.72"/><rect class="cls-4" x="15.27" y="24.82" width="1.72" height="1.72"/><rect class="cls-4" x="15.27" y="21.38" width="1.72" height="1.72"/><rect class="cls-4" x="15.27" y="28.26" width="1.72" height="1.72"/><rect class="cls-4" x="18.7" y="21.38" width="1.72" height="1.72"/><rect class="cls-4" x="18.7" y="28.26" width="1.72" height="1.72"/></g></g></svg>