<svg xmlns="http://www.w3.org/2000/svg" xmlns:xlink="http://www.w3.org/1999/xlink" viewBox="0 0 138 138"><defs><style>.cls-1{fill:#09295b;}.cls-2{isolation:isolate;}.cls-3{clip-path:url(#clip-path);}.cls-4{fill:#f3dabd;}.cls-5{fill:#f4f4f4;}.cls-6,.cls-9{mix-blend-mode:multiply;}.cls-7,.cls-9{fill:#e5e5e6;}.cls-8{fill:#9a5138;}.cls-10{fill:#dca441;}.cls-11{fill:#4f402e;}.cls-12{fill:#d17c84;}</style><clipPath id="clip-path"><circle class="cls-1" cx="69" cy="69" r="69"/></clipPath></defs><title>image</title><g class="cls-2"><g id="Слой_2" data-name="Слой 2"><g id="Слой_1-2" data-name="Слой 1"><circle class="cls-1" cx="69" cy="69" r="69"/><g class="cls-3"><path class="cls-4" d="M115,43.91c-.46-.93-7.12,2.09-7.76,2.41A248.29,248.29,0,0,1,80.6,56l1.12,3.26c14.06-3.81,26.9-8.63,27.48-8.84s1.42-.5,1.46-1a.44.44,0,0,0-.59-.45c.33-.2.7-.34.54-.84a.52.52,0,0,0-.64-.25c.48-.24.83-.56.77-.88a.72.72,0,0,0-.79-.53C110.33,46.19,115.3,44.56,115,43.91Z"/><path class="cls-5" d="M80.6,56l1.12,3.26c1.5-.41,3-.83,4.46-1.25l-1-3.41C83.66,55.09,82.12,55.56,80.6,56Z"/><g class="cls-6"><path class="cls-7" d="M80.6,56l1.12,3.26,1.86-.52L84,55C82.84,55.34,81.72,55.68,80.6,56Z"/></g><path class="cls-5" d="M30.46,102.34l4.22,11.42a3.45,3.45,0,0,0,2.15,2.09c10.57,3.45,23.15,3.32,35.4-1.21C87.49,109,98.71,97.83,103.46,85.3a5,5,0,0,0-2.26-6.1c-11.76-6.42-27.54-7.61-42.8-2C46.16,81.76,36.52,89.85,30.73,99.35A3.45,3.45,0,0,0,30.46,102.34Z"/><path class="cls-8" d="M39.14,116.81a12.06,12.06,0,0,1-5.45,14.72,1.64,1.64,0,0,0-.76,2l.08.23a1.63,1.63,0,0,0,1.77,1,32.37,32.37,0,0,0,23.7-16.91A52.16,52.16,0,0,1,39,116.5Z"/><path class="cls-8" d="M31.85,97.12a12.06,12.06,0,0,0-13.72-7.64,1.64,1.64,0,0,1-1.89-1l-.08-.23a1.63,1.63,0,0,1,.66-1.95,32.37,32.37,0,0,1,29-2.58A52.16,52.16,0,0,0,32,97.44Z"/><path class="cls-8" d="M101.23,79.21a46.53,46.53,0,0,0-17.37-5.3l9.86,26.67a46.53,46.53,0,0,0,9.74-15.32A4.92,4.92,0,0,0,101.23,79.21Z"/><path class="cls-9" d="M85.83,76.56a.68.68,0,0,1,.4-.87.68.68,0,0,1,.52,0,.7.7,0,0,1,.33.9.68.68,0,0,1-1.25,0Z"/><path class="cls-9" d="M87.52,79.19a.68.68,0,0,1,.87.4h0a.68.68,0,0,1-.4.87h0a.68.68,0,0,1-.87-.4h0A.68.68,0,0,1,87.52,79.19Z"/><path class="cls-9" d="M92.69,93.17a.68.68,0,0,1,.87.4h0a.68.68,0,0,1-.4.87h0a.68.68,0,0,1-.87-.4h0A.68.68,0,0,1,92.69,93.17Zm-1.29-3.5a.68.68,0,0,1,.87.4h0a.68.68,0,0,1-.4.87h0a.68.68,0,0,1-.87-.4h0A.68.68,0,0,1,91.4,89.67Zm-1.29-3.5a.68.68,0,0,1,.87.4h0a.68.68,0,0,1-.4.87h0a.68.68,0,0,1-.87-.4h0A.68.68,0,0,1,90.11,86.18Zm-1.29-3.5a.68.68,0,0,1,.87.4h0a.68.68,0,0,1-.4.87h0a.68.68,0,0,1-.87-.4h0A.68.68,0,0,1,88.81,82.68Z"/><path class="cls-9" d="M93.58,97.53a.68.68,0,0,1,.92-.85.7.7,0,0,1,.33.9.68.68,0,0,1-1.25,0Z"/><path class="cls-9" d="M83.33,73.86l10,27.12.37-.39L83.86,73.92Z"/><path class="cls-9" d="M44.24,83.12a56,56,0,0,0-13.1,12.44,12.16,12.16,0,0,1,.71,1.56l.11.32A52.16,52.16,0,0,1,45.82,83.7Q45,83.39,44.24,83.12Z"/><path class="cls-9" d="M58.48,117.92A52.16,52.16,0,0,1,39,116.5l.13.32a12.16,12.16,0,0,1,.48,1.65,56,56,0,0,0,18,.92Q58.08,118.66,58.48,117.92Z"/><path class="cls-8" d="M26.27,120.94C16.17,124.68.21,120,.21,120s9.08-13.92,19.18-17.66c5.13-1.9,9.31,1.29,11.21,6.42S31.4,119,26.27,120.94Z"/><path class="cls-10" d="M26.36,118.83c-4.12,1.52-11.21.35-12.73-3.78s3.09-9.63,7.21-11.15,7.18,1.15,8.7,5.27S30.48,117.31,26.36,118.83Z"/><path class="cls-5" d="M27.32,115c-2.44.9-6.7.23-7.6-2.21s1.89-5.72,4.33-6.62,3.63.91,4.53,3.35S29.76,114.11,27.32,115Z"/><path class="cls-8" d="M30.73,99.35a3.45,3.45,0,0,0-.28,3l4.22,11.42a3.45,3.45,0,0,0,2.15,2.09q1.07.35,2.18.65L32,97.45Q31.32,98.39,30.73,99.35Z"/><g class="cls-6"><path class="cls-7" d="M32.54,99l-2,.74a3.37,3.37,0,0,0-.15.44l2.29-.85Z"/><path class="cls-7" d="M33.18,100.74l-2.87,1.06a3.5,3.5,0,0,0,.09.35l2.9-1.07Z"/><rect class="cls-7" x="30.87" y="103" width="3.11" height="0.36" transform="translate(-33.8 17.67) rotate(-20.31)"/><rect class="cls-7" x="31.51" y="104.73" width="3.11" height="0.36" transform="translate(-34.36 18) rotate(-20.31)"/><rect class="cls-7" x="32.15" y="106.47" width="3.11" height="0.36" transform="translate(-34.92 18.33) rotate(-20.31)"/><rect class="cls-7" x="32.79" y="108.2" width="3.11" height="0.36" transform="matrix(0.94, -0.35, 0.35, 0.94, -35.49, 18.66)"/><rect class="cls-7" x="33.43" y="109.93" width="3.11" height="0.36" transform="matrix(0.94, -0.35, 0.35, 0.94, -36.05, 18.99)"/><rect class="cls-7" x="34.07" y="111.66" width="3.11" height="0.36" transform="translate(-36.61 19.32) rotate(-20.31)"/><path class="cls-7" d="M37.67,112.86l-2.91,1.08a3.51,3.51,0,0,0,.16.32l2.87-1.06Z"/><path class="cls-7" d="M38.31,114.6l-2.29.85a3.37,3.37,0,0,0,.4.23l2-.74Z"/></g><g class="cls-6"><path class="cls-5" d="M103.48,81.83c.15.42-.07,1-.71,1.6-6.9,6.72-19.51,14.1-34.77,19.74-12.25,4.53-23.93,7.1-33,7.62-.86,0-1.44-.15-1.58-.53h0l1.29,3.5a3.45,3.45,0,0,0,2.15,2.09c10.57,3.45,23.15,3.32,35.4-1.21C87.49,109,98.71,97.83,103.46,85.3A4.94,4.94,0,0,0,103.48,81.83Z"/></g><path class="cls-9" d="M53,93.86c2.23-4.93-2.42-6-2.42-6l7.15-4.22-.49-5.92q-1.7.67-3.33,1.43l.93,3-6.64,5.38S50.92,98.52,53,93.86Z"/><path class="cls-5" d="M53.51,49.22l29.67,7.38c-1.53,3.81-3.54,8.78-3.17,13.74-5.13,3.13-22.1,7-27.47,5.48C51,68.49,51.44,58.5,53.51,49.22Z"/><path class="cls-11" d="M80,70.35,52.54,75.83l1.1,6.2-7.24,4.54s1.34,11.25,4,6.88c2.81-4.62-1.67-6.3-1.67-6.3l7.6-3.33.24-6.26a182,182,0,0,1,20.51-4.42l.18.49q1.73,0,3.42,0Z"/><path class="cls-4" d="M83.18,56.61S95.08,28,69.8,27.15c0,0-10.26,6.15-16.29,22.08C71.12,60.82,83.18,56.61,83.18,56.61Z"/><path class="cls-11" d="M93.35,19.82c-.65,8.91-3.42,21-27.82,14L63.12,40s-2-3-3.43-.19,2.43,2.5,2.43,2.5a51.2,51.2,0,0,1-8.61,7c-.24.14-4-29.9,9.45-26.76,0,0,2.77-6.31,12.25-4.3C83.87,20,85.52,29,93.35,19.82Z"/><path class="cls-12" d="M71.19,48a56.43,56.43,0,0,1,8.94,1.48s-1,4.78-5.28,4.07C70.11,52.74,71.19,48,71.19,48Z"/><ellipse class="cls-11" cx="70.3" cy="41.76" rx="2.33" ry="1.07" transform="translate(22.47 108.08) rotate(-84.91)"/><ellipse class="cls-11" cx="82.82" cy="42.87" rx="2.33" ry="1.07" transform="translate(32.78 121.57) rotate(-84.91)"/><g class="cls-6"><path class="cls-7" d="M55.78,53.79c7.76,15.68,16.5,22.25,17,22.48s1.71,1,1.36,1.5c-.18.26-.42.29-.8.13.21.18.43.39.32.66s-.6.28-.87.18l-.07,0,.07,0a.64.64,0,0,1,.31.69c-.12.29-.54.25-.82.12a.54.54,0,0,1,.24.65c-.23.56-1.12.17-1.92-.2-1.25-.48-11.71-7.44-17.78-24.52Z"/></g><path class="cls-4" d="M55.76,53.77c7.88,15.62,16.67,22.12,17.13,22.35s1.72,1,1.37,1.49c-.17.26-.41.3-.8.14.22.18.43.39.32.66s-.6.29-.87.19l-.07,0,.07,0a.64.64,0,0,1,.31.68c-.11.29-.53.25-.82.13a.54.54,0,0,1,.24.65c-.22.56-1.22-.07-1.82-.45s-9.71-7.06-18.07-24.11Z"/><path class="cls-5" d="M55.76,53.77l-3,1.72c.61,1.25,1.23,2.43,1.85,3.57l2.95-1.9C57,56.08,56.36,55,55.76,53.77Z"/><g class="cls-6"><path class="cls-5" d="M79.8,59.2l.53,1.15-.91,1.26s-1.76,8.33-12,7.24l-2.14-3.09L68.36,64c8,2.79,9.42-2.33,9.42-2.33l-.89-1.44.57-.88Z"/></g><path class="cls-11" d="M79.8,59.2l.53,1.15-.91,1.26s-1.57,7.58-11.81,6.49L65.48,65l3.07-1.78c8,2.79,9.23-1.58,9.23-1.58l-.89-1.44.57-.88Z"/></g></g></g></g></svg>